<svg width="365" height="619" viewBox="0 0 365 619" fill="none" xmlns="http://www.w3.org/2000/svg">
<path d="M358 83.0997V535.901C340.898 536.19 324.576 543.886 312.498 557.344C300.4 570.824 293.528 589.004 293.295 608H71.7051C71.4719 589.004 64.5995 570.824 52.502 557.344C40.4244 543.886 24.1021 536.19 7 535.901V83.0994C24.1021 82.8103 40.4244 75.114 52.502 61.6559C64.5995 48.1756 71.4719 29.9956 71.7051 11H293.279C293.392 20.2478 295.082 29.3925 298.263 37.9471C301.558 46.81 306.39 54.8693 312.488 61.6623C318.586 68.4555 325.831 73.8501 333.812 77.5322C341.486 81.0724 349.694 82.9613 358 83.0997Z" stroke="url(#paint0_linear_1669_4102)" stroke-width="2"/>
<path d="M364 75.5076V543.493C346.315 543.782 329.433 551.732 316.943 565.641C304.433 579.573 297.328 598.366 297.095 618H67.9051C67.6716 598.366 60.5673 579.573 48.0573 565.641C35.5671 551.732 18.6854 543.782 1 543.493V75.5073C18.6854 75.2182 35.5671 67.2682 48.0573 53.3585C60.5673 39.4268 67.6716 20.6343 67.9051 1H297.078C297.192 10.5641 298.939 20.022 302.23 28.8688C305.636 38.0239 310.63 46.3486 316.932 53.3652C323.234 60.382 330.722 65.9538 338.97 69.7568C346.911 73.418 355.405 75.3692 364 75.5076Z" stroke="url(#paint1_linear_1669_4102)" stroke-width="2"/>
<defs>
<linearGradient id="paint0_linear_1669_4102" x1="182.5" y1="10" x2="182.5" y2="609" gradientUnits="userSpaceOnUse">
<stop offset="0.825" stop-color="#BC61D5"/>
<stop offset="1" stop-color="#F9F4FB"/>
</linearGradient>
<linearGradient id="paint1_linear_1669_4102" x1="182.5" y1="0" x2="182.5" y2="619" gradientUnits="userSpaceOnUse">
<stop offset="0.825" stop-color="#BC61D5"/>
<stop offset="1" stop-color="#F9F4FB"/>
</linearGradient>
</defs>
</svg>
